# xmcd CD database file
#
# Track frame offsets:
#	150
#	9986
#	29992
#	56044
#	71647
#	101906
#	122831
#	142781
#	167885
#	187528
#	200484
#	215892
#	231690
#	258410
#	275936
#	288363
#	313105
#	332888
#	337514
#
# Disc length: 4539 seconds
#
# Revision: 0
# Processed by: cddbd v1.5.2PL0 Copyright (c) Steve Scherf et al.
# Submitted via: CDex 1.70beta2
#
DISCID=3011b913
DTITLE=JazzAppeal - Live in Sevenum
DYEAR=1900
DGENRE=Jazz
TTITLE0=Candy
TTITLE1=Your Mama And Your Papa
TTITLE2=Moondance
TTITLE3=Come Away With Me
TTITLE4=Summertime
TTITLE5=Nature Boy
TTITLE6=Watermelon Man
TTITLE7=Brand New Day
TTITLE8=Ain't Misbehavin'
TTITLE9=Nice Work If You Can Get It
TTITLE10=There Will Never Be Another You
TTITLE11=My Baby Just Cares For Me
TTITLE12=Pick Up The Pieces
TTITLE13=Just One Of Those Things
TTITLE14=The Midnight Sun Will Never Set
TTITLE15=Mack The Knife
TTITLE16=Cantaloupe Island
TTITLE17=Als Sterren Aan De Hemel Staan
TTITLE18=JazzAppeal Thema
EXTD=
EXTT0=
EXTT1=
EXTT2=
EXTT3=
EXTT4=
EXTT5=
EXTT6=
EXTT7=
EXTT8=
EXTT9=
EXTT10=
EXTT11=
EXTT12=
EXTT13=
EXTT14=
EXTT15=
EXTT16=
EXTT17=
EXTT18=
PLAYORDER=
